HIERARCHY
ROOT Hips
{
	OFFSET -0.179506 -22.333345 2.821913
	CHANNELS 6 Xposition Yposition Zposition Zrotation Yrotation Xrotation 
	JOINT LeftUpLeg
	{
		OFFSET 6.951974 -9.140623 -0.681533
		CHANNELS 3 Zrotation Yrotation Xrotation
		JOINT LeftLeg
		{
			OFFSET 3.427654 -37.519855 -0.449580
			CHANNELS 3 Zrotation Yrotation Xrotation
			JOINT LeftFoot
			{
				OFFSET -1.359570 -39.796059 -4.369333
				CHANNELS 3 Zrotation Yrotation Xrotation
				JOINT LeftToe
				{
					OFFSET 2.635814 -5.579078 11.928840
					CHANNELS 3 Zrotation Yrotation Xrotation
					End Site
					{
						OFFSET 0.000000 0.000000 0.000000
					}
				}
			}
		}
	}
	JOINT RightUpLeg
	{
		OFFSET -6.767048 -9.052170 -0.431982
		CHANNELS 3 Zrotation Yrotation Xrotation
		JOINT RightLeg
		{
			OFFSET -3.829005 -38.256897 -0.885003
			CHANNELS 3 Zrotation Yrotation Xrotation
			JOINT RightFoot
			{
				OFFSET 1.577377 -39.841461 -4.231180
				CHANNELS 3 Zrotation Yrotation Xrotation
				JOINT RightToe
				{
					OFFSET -2.537174 -4.814398 12.334795
					CHANNELS 3 Zrotation Yrotation Xrotation
					End Site
					{
						OFFSET 0.000000 0.000000 0.000000
					}
				}
			}
		}
	}
	JOINT Spine
	{
		OFFSET -0.253288 10.896323 -2.669631
		CHANNELS 3 Zrotation Yrotation Xrotation
		JOINT Spine1
		{
			OFFSET 0.548704 13.518043 0.109247
			CHANNELS 3 Zrotation Yrotation Xrotation
			JOINT Spine2
			{
				OFFSET 0.145701 5.292222 2.542457
				CHANNELS 3 Zrotation Yrotation Xrotation
				JOINT Neck
				{
					OFFSET -0.277840 21.387037 -4.285703
					CHANNELS 3 Zrotation Yrotation Xrotation
					JOINT Head
					{
						OFFSET 0.515184 6.496960 5.134897
						CHANNELS 3 Zrotation Yrotation Xrotation
						End Site
						{
							OFFSET 0.000000 0.000000 0.000000
						}
					}
				}
				JOINT LeftShoulder
				{
					OFFSET 7.884473 12.174932 -3.408961
					CHANNELS 3 Zrotation Yrotation Xrotation
					JOINT LeftArm
					{
						OFFSET 9.097692 3.046888 -0.886815
						CHANNELS 3 Zrotation Yrotation Xrotation
						JOINT LeftForeArm
						{
							OFFSET 25.961220 -1.277207 -2.745643
							CHANNELS 3 Zrotation Yrotation Xrotation
							JOINT LeftHand
							{
								OFFSET 24.923361 0.898606 -0.117091
								CHANNELS 3 Zrotation Yrotation Xrotation
								End Site
								{
									OFFSET 0.000000 0.000000 0.000000
								}
							}
						}
					}
				}
				JOINT RightShoulder
				{
					OFFSET -8.175920 11.883285 -3.861528
					CHANNELS 3 Zrotation Yrotation Xrotation
					JOINT RightArm
					{
						OFFSET -9.601238 3.255117 -0.914307
						CHANNELS 3 Zrotation Yrotation Xrotation
						JOINT RightForeArm
						{
							OFFSET -25.374195 -1.332924 -2.140099
							CHANNELS 3 Zrotation Yrotation Xrotation
							JOINT RightHand
							{
								OFFSET -25.529810 0.777228 -0.555919
								CHANNELS 3 Zrotation Yrotation Xrotation
								End Site
								{
									OFFSET 0.000000 0.000000 0.000000
								}
							}
						}
					}
				}
			}
		}
	}
}
MOTION
Frames: 6
Frame Time: 0.033333
56.989658 59.029095 92.224258 -175.133448 0.114220 89.915879 5.832920 2.594578 3.749654 -4.076320 -5.518242 -6.165671 -0.201881 7.567721 -4.725871 nan nan nan -7.511216 -4.223685 1.615129 3.203774 -1.022481 -1.287457 5.355623 -5.719729 -5.280747 nan nan nan -0.427059 1.461937 2.086208 2.201506 -3.468066 4.973308 1.167455 -1.373983 -3.334708 1.357140 2.371770 -1.306900 2.360986 0.194234 10.367950 -30.707402 -2.842221 4.077657 -53.875224 -7.264757 16.249921 2.342894 -18.395021 14.425917 -6.584394 -11.457595 7.011501 31.802277 3.614425 4.973716 51.060297 5.075890 14.198313 -10.184671 18.699603 0.917350 5.903627 6.322447 3.090417 
56.984470 59.028008 92.224464 -175.119300 0.143257 89.932918 5.862053 2.616144 3.715461 -4.097247 -5.448663 -6.146154 -0.224928 7.605511 -4.623561 nan nan nan -7.491579 -4.259509 1.570426 3.182874 -0.946303 -1.251084 5.477017 -5.749230 -5.278010 nan nan nan -0.293687 1.373213 2.109661 2.088453 -3.382436 4.818533 1.135948 -1.360675 -3.183529 1.408758 2.242316 -1.749001 2.195083 0.124936 10.567985 -30.563808 -2.814436 4.104724 -53.978527 -7.295905 16.314812 2.334306 -18.476546 14.617234 -6.548647 -11.361524 6.804557 31.706504 3.570444 4.946658 51.284830 5.096232 14.314438 -10.270124 18.713202 1.065427 5.879548 6.105281 2.912857 
56.993118 59.015324 92.224304 -175.072300 0.149681 90.095515 5.870963 2.626375 3.480877 -4.131238 -5.408880 -6.053396 -0.263664 7.601074 -4.623776 nan nan nan -7.479380 -4.263677 1.373052 3.211359 -1.003176 -1.198289 5.555173 -5.731783 -5.339499 nan nan nan -0.309752 1.365209 1.852814 2.119094 -3.434031 5.070737 1.050788 -1.317231 -3.229366 0.920561 1.890055 -1.093217 1.908405 -0.487845 10.348489 -30.348940 -2.808539 3.947137 -54.231407 -7.345668 16.559592 2.466547 -18.363244 14.371478 -6.915099 -11.345316 7.117419 31.704499 3.573071 4.774309 51.432186 4.990205 14.270024 -10.427018 18.888594 0.852137 6.029076 6.191767 3.062644 
56.998077 59.009285 92.226395 -175.051179 0.149322 90.095500 5.885910 2.633921 3.450264 -4.165909 -5.396098 -6.017142 -0.265865 7.590491 -4.612814 nan nan nan -7.468113 -4.266681 1.371338 3.170759 -0.995012 -1.194504 5.549695 -5.719634 -5.347317 nan nan nan -0.290438 1.333184 1.884292 2.128107 -3.452114 4.987893 1.061283 -1.322364 -3.259871 0.826507 1.437783 -0.825411 1.675074 -0.740677 10.539529 -30.313679 -2.794745 4.058967 -54.338033 -7.379959 16.599043 2.507294 -18.317784 14.335763 -6.826007 -11.303227 6.993582 31.544654 3.619849 4.844960 51.623120 5.021418 14.271595 -10.453088 18.816121 0.787822 5.982377 6.162595 2.816552 
57.006443 59.022171 92.227608 -175.003719 0.084556 90.121291 5.828807 2.632773 3.314140 -4.279562 -5.321732 -5.843060 -0.069456 7.556881 -4.730607 nan nan nan -7.494466 -4.174771 1.363103 3.157520 -1.345835 -1.217578 5.491399 -5.718897 -5.385440 nan nan nan -0.295005 1.333180 1.824666 2.028291 -3.635541 5.111446 1.039921 -1.201309 -3.433277 0.554488 1.479647 -0.421974 2.093150 -0.465689 9.633378 -30.118229 -2.953138 3.953106 -54.574240 -7.072250 16.665745 2.888051 -18.411344 13.176822 -7.502051 -11.638963 5.795016 30.892136 3.734806 4.666511 52.650275 4.506059 13.791949 -11.753259 21.693366 -2.803678 6.409333 8.262106 -1.501506 
56.993515 59.074215 92.181763 -174.666798 0.048003 90.390929 6.080747 2.289205 2.762146 -4.887720 -5.106297 -4.645458 1.010542 7.644364 -5.763963 nan nan nan -7.749947 -4.158504 1.216339 4.357960 -1.915947 -0.591690 3.351411 -6.601116 -7.032913 nan nan nan -0.503759 0.948948 1.232810 1.974974 -3.803637 5.624192 1.232306 -0.898711 -3.609196 -0.456272 2.236497 -0.517567 3.128269 -1.415767 9.191203 -29.192388 -2.784767 4.047039 -56.162204 -7.415071 15.518968 4.864069 -18.433297 12.082949 -13.180208 -15.395846 2.327813 30.934196 3.990087 4.916708 53.048850 4.513328 12.926687 -12.482345 21.137823 -2.218038 11.131389 8.624338 -2.721808 
